<?xml version="1.0" encoding="utf-8"?>
<!-- Generator: Adobe Illustrator 16.0.0, SVG Export Plug-In . SVG Version: 6.00 Build 0)  -->
<!DOCTYPE svg PUBLIC "-//W3C//DTD SVG 1.1//EN" "http://www.w3.org/Graphics/SVG/1.1/DTD/svg11.dtd">
<svg version="1.1" id="Capa_1" xmlns="http://www.w3.org/2000/svg" xmlns:xlink="http://www.w3.org/1999/xlink" x="0px" y="0px"
	 width="512px" height="512px" viewBox="0 0 512 512" enable-background="new 0 0 512 512" xml:space="preserve">
<g>
	<g>
		<path fill="#F14321" d="M125.855,139.781v161.434h35.024V116.144l106.904-73.497l104.522,73.389v227.631
			c8.927-7.385,17.77-14.866,26.312-22.707c2.943-2.701,5.84-5.44,8.717-8.183V137.889l20.914,14.306l19.77-28.909L277.833,6.9
			L268,0l-10.02,6.892l-78.636,53.824V33.319h-44.079v57.579l-45.892,31.419l19.786,28.896L125.855,139.781z"/>
		<path fill="#F14321" d="M274.977,297.314v-20.98c20.347-4.545,33.314-19.281,33.314-38.291c0-19.055-10.316-31.047-34.372-40.074
			c-16.202-6.479-21.402-10.296-21.402-15.697c0-6.207,5.542-9.899,14.823-9.899c11.57,0,19.398,3.643,24.068,5.823l5.199,2.389
			l7.507-25.567l-2.907-1.454c-7.719-3.855-15.752-6.019-25.037-6.712v-18.524h-23.938v20.032
			c-19.661,4.641-31.736,18.458-31.736,36.669c0,22.622,18.537,32.375,36.652,38.933c16.625,6.073,18.922,11.399,18.922,16.252
			c0,7.092-6.68,11.679-17,11.679c-9.511,0-19.995-2.965-28.763-8.132l-4.327-2.557l-7.502,26.09l2.368,1.578
			c7.114,4.745,18.659,8.188,30.195,9.11v19.334h23.934v-0.002H274.977z"/>
		<path fill="#F14321" d="M509.448,378.088c-0.94-11.365-9.304-20.199-21.565-29.975c-8.588-6.838-25.217-14.814-43.854-14.814
			c-15.769,0-38.619,5.713-58.029,32.901c-17.46,22.288-39.347,31.317-57.115,34.73c1.591-3.984,2.627-8.768,2.66-15.521
			c0.154-37.814-29.975-66.23-71.639-66.418l-148.736,0.125c-13.959,0-27.697,4.119-39.28,11.574V311.34H2.473v200.656h69.412
			v-21.319c2.624,1.295,6.236,3.918,6.236,3.918c11.95,6.591,30.471,14.688,49.363,14.688h136.64
			c117.706,0,198.969-65.941,228.437-98.605C501.378,400.906,510.496,390.803,509.448,378.088z M48.636,355.662H24.373v-24.27
			h24.264L48.636,355.662L48.636,355.662z M474.554,394.42c-27.305,30.266-102.456,90.597-210.43,90.597h-136.64
			c-23.103,0-47.98-18.068-48.206-18.243c-2.13-1.571-4.666-2.373-7.222-2.373c-0.054,0-0.113,0.017-0.175,0.017V357.495
			c2.656,0.042,5.305-0.714,7.498-2.382l2.652-2c8.253-6.271,18.596-9.729,29.076-9.729l148.678-0.13
			c23.721,0.101,47.613,13.729,47.486,42.054c0,16.356-10.905,17.2-11.489,17.344h-108.98c-6.7,0-12.13,5.434-12.13,12.13
			c0,6.694,5.43,12.125,12.13,12.125H302.47l6.444-0.018c18.161-0.004,63.887-4.294,96.379-45.979
			c0.104-0.142,0.222-0.288,0.317-0.435c10.797-15.213,23.725-22.924,38.41-22.924c13.263,0,24.599,6.24,28.737,9.536
			c12.154,9.683,12.493,12.856,12.502,12.981C485.301,382.507,477.49,391.161,474.554,394.42z"/>
	</g>
</g>
</svg>
