<?xml version="1.0" encoding="utf-8"?>
<!-- Generator: Adobe Illustrator 16.0.0, SVG Export Plug-In . SVG Version: 6.00 Build 0)  -->
<!DOCTYPE svg PUBLIC "-//W3C//DTD SVG 1.1//EN" "http://www.w3.org/Graphics/SVG/1.1/DTD/svg11.dtd">
<svg version="1.1" id="Capa_1" xmlns="http://www.w3.org/2000/svg" xmlns:xlink="http://www.w3.org/1999/xlink" x="0px" y="0px"
	 width="512px" height="512px" viewBox="0 0 512 512" enable-background="new 0 0 512 512" xml:space="preserve">
<g>
	<path fill="#333333" d="M65.425,158.943l170.855-128.84l170.856,128.84c2.411,1.817,5.234,2.696,8.037,2.696
		c4.049,0,8.053-1.835,10.68-5.319c4.444-5.894,3.271-14.272-2.623-18.717L244.328,2.694c-4.765-3.593-11.329-3.593-16.094,0
		L49.332,137.603c-5.894,4.445-7.068,12.824-2.623,18.717C51.153,162.211,59.532,163.383,65.425,158.943L65.425,158.943z"/>
	<path fill="#333333" d="M464.072,462.863l-35.523-35.522V205.182c0-4.194-1.968-8.145-5.316-10.67L244.328,59.603
		c-4.765-3.593-11.329-3.593-16.094,0L49.332,194.512c-3.349,2.525-5.317,6.476-5.317,10.67v227.14
		c0,7.381,5.983,13.364,13.364,13.364h299.068l62.4,62.4c2.61,2.61,6.031,3.914,9.45,3.914s6.841-1.306,9.45-3.914l26.323-26.322
		C469.289,476.544,469.289,468.081,464.072,462.863L464.072,462.863z M70.742,211.842L236.281,87.012l165.539,124.831v188.771
		l-56.599-56.602c21.92-41.307,15.517-93.821-19.229-128.569c-20.644-20.643-48.087-32.01-77.281-32.01
		c-29.192,0-56.638,11.369-77.281,32.01c-42.611,42.614-42.611,111.95,0.002,154.561c20.643,20.644,48.087,32.011,77.279,32.011
		c18.195,0,35.712-4.42,51.324-12.745l29.686,29.685H70.742V211.842L70.742,211.842z M248.709,375.289
		c-22.054,0-42.787-8.59-58.38-24.184c-32.191-32.191-32.191-84.57-0.002-116.764c15.596-15.594,36.329-24.183,58.382-24.183
		c22.057,0,42.787,8.589,58.381,24.183c32.191,32.192,32.191,84.571,0,116.764C291.496,366.701,270.766,375.289,248.709,375.289z
		 M322.188,373.628c1.291-1.175,2.561-2.379,3.804-3.622c1.244-1.244,2.445-2.516,3.617-3.807l106.114,106.114l-7.425,7.425
		L322.188,373.628L322.188,373.628z"/>
	<path fill="#333333" d="M299.854,324.969c-5.219-5.218-13.68-5.218-18.899,0c-17.778,17.777-46.707,17.779-64.486,0
		c-5.22-5.218-13.681-5.218-18.9,0c-5.217,5.217-5.217,13.68,0,18.898c14.103,14.1,32.623,21.15,51.143,21.15
		c18.522,0,37.043-7.051,51.145-21.15C305.074,338.648,305.074,330.186,299.854,324.969z"/>
</g>
</svg>
